<svg width="16" height="16" viewBox="0 0 16 16" fill="none" xmlns="http://www.w3.org/2000/svg">
<path d="M8.66671 4.00001C8.66671 3.63182 8.36823 3.33334 8.00004 3.33334C7.63185 3.33334 7.33337 3.63182 7.33337 4.00001L7.33337 12C7.33337 12.3682 7.63185 12.6667 8.00004 12.6667C8.36823 12.6667 8.66671 12.3682 8.66671 12L8.66671 4.00001Z" fill="#70C5A1"/>
<path d="M4.47145 7.52858C4.2111 7.26823 3.78899 7.26823 3.52864 7.52858C3.26829 7.78893 3.26829 8.21104 3.52864 8.47139L7.52864 12.4714C7.78102 12.7238 8.18741 12.7326 8.45052 12.4914L12.4505 8.82476C12.7219 8.57596 12.7403 8.15425 12.4915 7.88284C12.2427 7.61143 11.821 7.59309 11.5496 7.84189L8.02009 11.0772L4.47145 7.52858Z" fill="#70C5A1"/>
</svg>
