<svg width="24" height="24" viewBox="0 0 24 24" fill="none" xmlns="http://www.w3.org/2000/svg">
<path d="M12 18C12.5523 18 13 18.4477 13 19V21C13 21.5523 12.5523 22 12 22C11.4477 22 11 21.5523 11 21V19C11 18.4477 11.4477 18 12 18ZM21 11C21.5523 11 22 11.4477 22 12C22 12.5523 21.5523 13 21 13H19C18.4477 13 18 12.5523 18 12C18 11.4477 18.4477 11 19 11H21ZM5 11C5.55228 11 6 11.4477 6 12C6 12.5523 5.55228 13 5 13H3C2.44772 13 2 12.5523 2 12C2 11.4477 2.44772 11 3 11H5ZM12 1.99999C12.5523 1.99999 13 2.44771 13 2.99999V4.99999C13 5.55228 12.5523 5.99999 12 5.99999C11.4477 5.99999 11 5.55228 11 4.99999V2.99999C11 2.44771 11.4477 1.99999 12 1.99999Z" fill="#70C5A1"/>
<path d="M12 14C13.1046 14 14 13.1046 14 12C14 10.8954 13.1046 10 12 10C10.8954 10 10 10.8954 10 12C10 13.1046 10.8954 14 12 14Z" fill="#70C5A1"/>
<path d="M12 17C14.7614 17 17 14.7614 17 12C17 9.23857 14.7614 6.99999 12 6.99999C9.23858 6.99999 7 9.23857 7 12C7 14.7614 9.23858 17 12 17ZM12 19C8.13401 19 5 15.866 5 12C5 8.134 8.13401 4.99999 12 4.99999C15.866 4.99999 19 8.134 19 12C19 15.866 15.866 19 12 19Z" fill="#70C5A1"/>
</svg>
