<svg width="16" height="16" viewBox="0 0 16 16" fill="none" xmlns="http://www.w3.org/2000/svg">
<path d="M7.33341 12C7.33341 12.3682 7.63189 12.6667 8.00008 12.6667C8.36827 12.6667 8.66675 12.3682 8.66675 12L8.66675 4C8.66675 3.63181 8.36827 3.33333 8.00008 3.33333C7.63189 3.33333 7.33341 3.63181 7.33341 4L7.33341 12Z" fill="#FFC58F"/>
<path d="M11.5287 8.47141C11.789 8.73176 12.2111 8.73176 12.4715 8.47141C12.7318 8.21106 12.7318 7.78895 12.4715 7.5286L8.47149 3.5286C8.2191 3.27621 7.81271 3.26738 7.5496 3.50857L3.5496 7.17523C3.27819 7.42403 3.25985 7.84574 3.50865 8.11715C3.75744 8.38857 4.17915 8.4069 4.45056 8.15811L7.98003 4.92276L11.5287 8.47141Z" fill="#FFC58F"/>
</svg>
